<svg width="32" height="32" viewBox="0 0 32 32" fill="none" xmlns="http://www.w3.org/2000/svg">
<g clip-path="url(#clip0_113007_114)">
<rect width="32" height="32" fill="url(#paint0_linear_113007_114)"/>
<path d="M4 16.8045V18.3143C4 18.6055 4.16089 18.8721 4.41884 19.0077L9.07058 21.4576V19.1148L6.2185 17.6681C6.12942 17.6229 6.12942 17.4959 6.2185 17.4507L9.07058 16.0041V13.6613L4.41884 16.1111C4.16155 16.2467 4 16.5133 4 16.8045ZM27.5812 16.1111L22.9294 13.6613V16.0041L25.7815 17.4507C25.8706 17.4959 25.8706 17.6229 25.7815 17.6681L22.9294 19.1148V21.4576L27.5812 19.0077C27.8384 18.8721 28 18.6055 28 18.3143V16.8045C28 16.5133 27.8391 16.2467 27.5812 16.1111Z" fill="#FF00FF"/>
<path d="M19.4365 18.898V10.375L17.3503 10.9893V13.735C16.6888 13.3474 15.9023 13.1267 15.0427 13.1267C12.5642 13.1267 10.6895 14.9536 10.6895 17.3682C10.6895 19.7829 12.5642 21.6098 15.0427 21.6098C16.0652 21.6098 16.9846 21.298 17.7119 20.7635C18.035 21.292 18.6287 21.6098 19.6931 21.6098H20.2868V19.5874H20.1266C19.6772 19.5874 19.4365 19.3308 19.4365 18.8973V18.898ZM15.0427 19.6087C13.7716 19.6087 12.8189 18.6394 12.8189 17.3689C12.8189 16.0984 13.7722 15.1291 15.0427 15.1291C16.3132 15.1291 17.2665 16.0984 17.2665 17.3689C17.2665 18.6394 16.3291 19.6087 15.0427 19.6087Z" fill="white"/>
</g>
<defs>
<linearGradient id="paint0_linear_113007_114" x1="16" y1="0" x2="16" y2="32" gradientUnits="userSpaceOnUse">
<stop stop-color="#423A3D"/>
<stop offset="1" stop-color="#1D1A1C"/>
</linearGradient>
<clipPath id="clip0_113007_114">
<rect width="32" height="32" rx="6" fill="white"/>
</clipPath>
</defs>
</svg>
