<svg width="40" height="40" viewBox="0 0 40 40" fill="none" xmlns="http://www.w3.org/2000/svg">
<path d="M0 21.7158V24.2322C0 24.7175 0.268144 25.1618 0.698061 25.3879L8.45097 29.471V25.5662L3.69751 23.1552C3.54903 23.0798 3.54903 22.8682 3.69751 22.7928L8.45097 20.3818V16.4771L0.698061 20.5602C0.269252 20.7862 0 21.2305 0 21.7158ZM39.3019 20.5602L31.549 16.4771V20.3818L36.3025 22.7928C36.451 22.8682 36.451 23.0798 36.3025 23.1552L31.549 25.5662V29.471L39.3019 25.3879C39.7307 25.1618 40 24.7175 40 24.2322V21.7158C40 21.2305 39.7319 20.7862 39.3019 20.5602Z" fill="#FF00FF"/>
<path d="M25.7278 25.205V11L22.2508 12.0238V16.6C21.1483 15.954 19.8375 15.5861 18.4048 15.5861C14.2741 15.5861 11.1494 18.631 11.1494 22.6554C11.1494 26.6798 14.2741 29.7247 18.4048 29.7247C20.109 29.7247 21.6414 29.205 22.8536 28.3141C23.3921 29.195 24.3815 29.7247 26.1555 29.7247H27.145V26.354H26.8779C26.1289 26.354 25.7278 25.9263 25.7278 25.2039V25.205ZM18.4048 26.3895C16.2863 26.3895 14.6984 24.774 14.6984 22.6565C14.6984 20.5391 16.2874 18.9235 18.4048 18.9235C20.5223 18.9235 22.1112 20.5391 22.1112 22.6565C22.1112 24.774 20.5489 26.3895 18.4048 26.3895Z" fill="white"/>
</svg>
