<svg width="447" height="96" viewBox="0 0 447 96" fill="none" xmlns="http://www.w3.org/2000/svg">
<path d="M239.863 54.9345V67.8311C239.863 70.3171 241.248 72.5977 243.454 73.7556L283.391 94.6868V74.6678L258.905 62.3075C258.14 61.9216 258.14 60.8389 258.905 60.453L283.391 48.0927V28.0737L243.454 49.005C241.243 50.1628 239.863 52.4434 239.863 54.9295V54.9345ZM442.549 49.01L402.612 28.0787V48.0977L427.098 60.458C427.864 60.8439 427.864 61.9266 427.098 62.3125L402.612 74.6728V94.6918L442.549 73.7606C444.76 72.6027 446.14 70.3222 446.14 67.8361V54.9395C446.14 52.4534 444.755 50.1728 442.549 49.015V49.01Z" fill="#FF00FF"/>
<path d="M123.376 23.5126C102.098 23.5126 86.0078 39.1208 86.0078 59.7563C86.0078 80.3918 102.103 96 123.376 96C139.759 96 153.054 86.7423 158.312 73.0689H137.362C133.952 76.6877 129.067 78.8981 123.376 78.8981C117.685 78.8981 112.966 76.7378 109.542 73.1841L158.64 58.9343C159.888 58.5734 160.684 57.3704 160.563 56.0823C158.775 37.3013 143.37 23.5176 123.376 23.5176V23.5126ZM104.339 58.5583C104.919 48.2982 112.876 40.6144 123.376 40.6144C130.074 40.6144 135.659 43.6719 139.019 48.4937L104.339 58.5583ZM75.0894 72.8233V0L57.1757 5.24785V28.7103C51.4999 25.3972 44.7464 23.5176 37.3634 23.5176C16.0956 23.5126 0 39.1258 0 59.7563C0 80.3868 16.0956 96 37.3684 96C46.1465 96 54.0382 93.3385 60.283 88.7673C63.0579 93.2834 68.1495 96 77.2902 96H82.3868V78.7227H81.0069C77.1492 78.7227 75.0843 76.5273 75.0843 72.8283L75.0894 72.8233ZM37.3684 78.8931C26.4601 78.8931 18.2763 70.6129 18.2763 59.7563C18.2763 48.8997 26.4601 40.6194 37.3684 40.6194C48.2768 40.6194 56.4606 48.8997 56.4606 59.7563C56.4606 70.6129 48.4127 78.8931 37.3684 78.8931ZM218.197 32.0535L201.361 75.2141C200.888 76.4321 199.156 76.4321 198.682 75.2141L181.846 32.0535C180.602 28.8707 177.525 26.7705 174.09 26.7705H159.596L186.59 91.7095C187.668 94.3059 190.216 96 193.037 96H206.997C209.822 96 212.365 94.3059 213.443 91.7095L240.437 26.7705H225.943C222.513 26.7705 219.431 28.8707 218.187 32.0535H218.197ZM358.963 23.5126C337.686 23.5126 321.595 39.1208 321.595 59.7563C321.595 80.3918 337.691 96 358.963 96C380.236 96 396.332 80.3918 396.332 59.7563C396.332 39.1208 380.236 23.5126 358.963 23.5126ZM358.963 78.8931C348.055 78.8931 339.871 70.6129 339.871 59.7563C339.871 48.8997 348.055 40.6194 358.963 40.6194C369.872 40.6194 378.056 48.8997 378.056 59.7563C378.056 70.6129 370.008 78.8931 358.963 78.8931ZM310.747 72.8233V26.4297H292.833V73.0238C292.833 86.2561 295.644 96 312.948 96H318.045V78.7227H316.665C312.807 78.7227 310.742 76.5273 310.742 72.8283L310.747 72.8233ZM301.793 20.014C307.348 20.014 311.845 15.533 311.845 10.0095C311.845 4.48097 307.343 0 301.793 0C296.238 0 291.741 4.48097 291.741 10.0045C291.741 15.533 296.243 20.009 301.793 20.009V20.014Z" fill="white"/>
</svg>
