<svg width="445" height="96" viewBox="0 0 445 96" fill="none" xmlns="http://www.w3.org/2000/svg">
<path d="M239.136 54.9345V67.8311C239.136 70.3171 240.516 72.5977 242.716 73.7556L282.532 94.6868V74.6678L258.12 62.3075C257.357 61.9216 257.357 60.8389 258.12 60.453L282.532 48.0927V28.0737L242.716 49.005C240.511 50.1628 239.136 52.4434 239.136 54.9295V54.9345ZM441.207 49.01L401.392 28.0787V48.0977L425.803 60.458C426.566 60.8439 426.566 61.9266 425.803 62.3125L401.392 74.6728V94.6918L441.207 73.7606C443.412 72.6027 444.787 70.3222 444.787 67.8361V54.9395C444.787 52.4534 443.407 50.1728 441.207 49.015V49.01Z" fill="#FF00FF"/>
<path d="M123.002 23.5126C101.789 23.5126 85.7472 39.1208 85.7472 59.7563C85.7472 80.3918 101.794 96 123.002 96C139.335 96 152.591 86.7423 157.832 73.0689H136.945C133.546 76.6877 128.676 78.8981 123.002 78.8981C117.329 78.8981 112.624 76.7378 109.21 73.1841L158.159 58.9343C159.404 58.5734 160.197 57.3704 160.077 56.0823C158.294 37.3013 142.935 23.5176 123.002 23.5176V23.5126ZM104.023 58.5583C104.601 48.2982 112.534 40.6144 123.002 40.6144C129.68 40.6144 135.248 43.6719 138.597 48.4937L104.023 58.5583ZM74.8618 72.8233V0L57.0024 5.24785V28.7103C51.3439 25.3972 44.6108 23.5176 37.2502 23.5176C16.0468 23.5126 0 39.1258 0 59.7563C0 80.3868 16.0468 96 37.2552 96C46.0066 96 53.8744 93.3385 60.1003 88.7673C62.8669 93.2834 67.943 96 77.056 96H82.1371V78.7227H80.7614C76.9154 78.7227 74.8568 76.5273 74.8568 72.8283L74.8618 72.8233ZM37.2552 78.8931C26.3799 78.8931 18.2209 70.6129 18.2209 59.7563C18.2209 48.8997 26.3799 40.6194 37.2552 40.6194C48.1305 40.6194 56.2895 48.8997 56.2895 59.7563C56.2895 70.6129 48.266 78.8931 37.2552 78.8931ZM217.536 32.0535L200.751 75.2141C200.279 76.4321 198.552 76.4321 198.08 75.2141L181.295 32.0535C180.055 28.8707 176.987 26.7705 173.563 26.7705H159.113L186.025 91.7095C187.099 94.3059 189.64 96 192.452 96H206.37C209.186 96 211.722 94.3059 212.796 91.7095L239.708 26.7705H225.258C221.839 26.7705 218.766 28.8707 217.526 32.0535H217.536ZM357.876 23.5126C336.662 23.5126 320.62 39.1208 320.62 59.7563C320.62 80.3918 336.667 96 357.876 96C379.084 96 395.131 80.3918 395.131 59.7563C395.131 39.1208 379.084 23.5126 357.876 23.5126ZM357.876 78.8931C347 78.8931 338.841 70.6129 338.841 59.7563C338.841 48.8997 347 40.6194 357.876 40.6194C368.751 40.6194 376.91 48.8997 376.91 59.7563C376.91 70.6129 368.887 78.8931 357.876 78.8931ZM309.805 72.8233V26.4297H291.946V73.0238C291.946 86.2561 294.748 96 312 96H317.081V78.7227H315.705C311.859 78.7227 309.8 76.5273 309.8 72.8283L309.805 72.8233ZM300.878 20.014C306.416 20.014 310.9 15.533 310.9 10.0095C310.9 4.48097 306.411 0 300.878 0C295.34 0 290.856 4.48097 290.856 10.0045C290.856 15.533 295.345 20.009 300.878 20.009V20.014Z" fill="#1A1617"/>
</svg>
