<?xml version="1.0" encoding="UTF-8"?>
<svg id="Camada_2" data-name="Camada 2" xmlns="http://www.w3.org/2000/svg" viewBox="0 0 409.59 191.53">
  <defs>
    <style>
      .cls-1 {
        fill: #f0f;
      }

      .cls-1, .cls-2 {
        stroke-width: 0px;
      }

      .cls-2 {
        fill: #1a1617;
      }
    </style>
  </defs>
  <g id="Layer_1" data-name="Layer 1">
    <g>
      <path class="cls-1" d="M0,109.6v25.73c0,4.96,2.75,9.51,7.13,11.82l79.3,41.76v-39.94l-48.62-24.66c-1.52-.77-1.52-2.93,0-3.7l48.62-24.66v-39.94L7.13,97.78c-4.39,2.31-7.13,6.86-7.13,11.82ZM402.46,97.78l-79.3-41.76v39.94l48.62,24.66c1.52.77,1.52,2.93,0,3.7l-48.62,24.66v39.94l79.3-41.76c4.39-2.31,7.13-6.86,7.13-11.82v-25.73c0-4.96-2.75-9.51-7.13-11.82Z"/>
      <g>
        <path class="cls-2" d="M236.49,46.91c-42.25,0-74.2,31.14-74.2,72.31s31.96,72.31,74.2,72.31,74.2-31.14,74.2-72.31-31.96-72.31-74.2-72.31ZM236.49,157.4c-21.66,0-37.91-16.52-37.91-38.18s16.25-38.18,37.91-38.18,37.91,16.52,37.91,38.18-15.98,38.18-37.91,38.18Z"/>
        <path class="cls-2" d="M140.75,145.29V52.73h-35.57v92.96c0,26.4,5.58,45.84,39.94,45.84h10.12v-34.47h-2.74c-7.66,0-11.76-4.38-11.76-11.76Z"/>
        <rect class="cls-2" x="103" y="0" width="39.93" height="39.93" rx="19.96" ry="19.96"/>
      </g>
    </g>
  </g>
</svg>